<svg width="372" height="361" viewBox="0 0 372 361" fill="none" xmlns="http://www.w3.org/2000/svg">
<rect width="372" height="361" fill="#444444"/>
<line x1="103.362" y1="218.853" x2="152.362" y2="148.853" stroke="white" stroke-width="4"/>
<line x1="153.369" y1="214.158" x2="104.369" y2="145.158" stroke="white" stroke-width="4"/>
<line x1="152.5" y1="265" x2="152.5" y2="210" stroke="white" stroke-width="5"/>
<line x1="152.5" y1="153" x2="152.5" y2="98" stroke="white" stroke-width="5"/>
<line x1="200.347" y1="218.126" x2="153.347" y2="149.126" stroke="white" stroke-width="4"/>
<line x1="151.381" y1="213.826" x2="201.38" y2="144.826" stroke="white" stroke-width="4"/>
<line x1="224" y1="85.5" x2="91" y2="85.5" stroke="white" stroke-width="3"/>
<line x1="224" y1="272.5" x2="91" y2="272.5" stroke="white" stroke-width="3"/>
<line x1="281" y1="272.5" x2="263" y2="272.5" stroke="white" stroke-width="3"/>
<line x1="279.5" y1="271" x2="279.5" y2="84" stroke="white" stroke-width="3"/>
<line x1="92.5" y1="271" x2="92.5" y2="84" stroke="white" stroke-width="3"/>
<line x1="281" y1="85.5" x2="263" y2="85.5" stroke="white" stroke-width="3"/>
<path d="M242.61 266.185L230.117 259.691V255.965L245.72 264.544H255V267.826H245.72L230.117 276.405V272.645L242.61 266.185ZM248.506 240.969V251.393L255 253.735V257.118L230.117 247.617V244.745L255 235.226V238.593L248.506 240.969ZM245.806 250.402V241.943L234.167 246.181L245.806 250.402ZM255 213.103V216.402L235.825 228.928H255V232.227H230.117V228.928L249.377 216.367H230.117V213.103H255ZM243.43 201.302L246.592 204.344H255V207.626H230.117V204.344H242.422L230.117 193.287V189.322L241.106 199.115L255 188.553V192.484L243.43 201.302ZM243.362 167.438C245.8 167.438 247.931 167.849 249.753 168.669C251.565 169.489 252.949 170.651 253.906 172.155C254.863 173.659 255.342 175.414 255.342 177.419C255.342 179.379 254.863 181.116 253.906 182.631C252.938 184.147 251.565 185.326 249.788 186.169C247.999 187.001 245.931 187.428 243.584 187.451H241.79C239.397 187.451 237.284 187.035 235.449 186.203C233.615 185.371 232.214 184.198 231.245 182.683C230.265 181.156 229.775 179.413 229.775 177.453C229.775 175.459 230.26 173.705 231.228 172.189C232.185 170.663 233.581 169.489 235.415 168.669C237.238 167.849 239.363 167.438 241.79 167.438H243.362ZM241.755 170.703C238.805 170.703 236.543 171.295 234.971 172.48C233.387 173.665 232.595 175.323 232.595 177.453C232.595 179.527 233.387 181.162 234.971 182.358C236.543 183.543 238.73 184.152 241.533 184.187H243.362C246.222 184.187 248.472 183.588 250.112 182.392C251.742 181.184 252.556 179.527 252.556 177.419C252.556 175.3 251.787 173.659 250.249 172.497C248.7 171.335 246.484 170.737 243.601 170.703H241.755ZM250.642 155.005L230.117 147.896V144.307L255 153.536V156.441L230.117 165.652V162.08L250.642 155.005ZM243.909 133.976C243.1 136.79 242.109 138.841 240.935 140.128C239.75 141.404 238.292 142.042 236.56 142.042C234.6 142.042 232.983 141.262 231.707 139.701C230.419 138.129 229.775 136.089 229.775 133.583C229.775 131.874 230.106 130.353 230.767 129.02C231.427 127.675 232.339 126.639 233.501 125.909C234.663 125.169 235.933 124.799 237.312 124.799V128.097C235.808 128.097 234.629 128.576 233.774 129.533C232.909 130.49 232.476 131.84 232.476 133.583C232.476 135.201 232.834 136.465 233.552 137.377C234.259 138.277 235.244 138.727 236.509 138.727C237.523 138.727 238.383 138.3 239.089 137.445C239.784 136.579 240.422 135.115 241.003 133.053C241.584 130.979 242.228 129.362 242.935 128.2C243.63 127.026 244.444 126.16 245.378 125.602C246.313 125.032 247.412 124.747 248.677 124.747C250.693 124.747 252.311 125.534 253.53 127.106C254.738 128.678 255.342 130.78 255.342 133.412C255.342 135.121 255.017 136.716 254.368 138.197C253.707 139.678 252.807 140.823 251.667 141.632C250.528 142.43 249.235 142.828 247.788 142.828V139.53C249.292 139.53 250.483 138.978 251.36 137.872C252.226 136.756 252.659 135.269 252.659 133.412C252.659 131.68 252.306 130.353 251.599 129.43C250.893 128.507 249.93 128.046 248.711 128.046C247.492 128.046 246.552 128.473 245.891 129.327C245.219 130.182 244.558 131.731 243.909 133.976ZM243.43 114.553L246.592 117.595H255V120.876H230.117V117.595H242.422L230.117 106.538V102.573L241.106 112.365L255 101.804V105.735L243.43 114.553ZM248.506 85.5426V95.9674L255 98.3087V101.692L230.117 92.1905V89.3194L255 79.8004V83.1671L248.506 85.5426ZM245.806 94.9762V86.5167L234.167 90.755L245.806 94.9762Z" fill="white"/>
</svg>
